<?xml version="1.0" encoding="iso-8859-1"?>
<!-- Generator: Adobe Illustrator 19.0.0, SVG Export Plug-In . SVG Version: 6.00 Build 0)  -->
<svg version="1.1" id="Capa_1" xmlns="http://www.w3.org/2000/svg" xmlns:xlink="http://www.w3.org/1999/xlink" x="0px" y="0px"
	 viewBox="0 0 512 512" style="enable-background:new 0 0 512 512;" xml:space="preserve">
<path style="fill:#FD3018;" d="M376,31c-60.601,0-99.6,42.299-120,80.4C235.6,73.299,196.601,31,136,31C58.9,31,0,93.999,0,177.4
	c0,90.599,73.9,152.699,183.999,246.599c19.501,16.5,40.201,34.2,62.1,53.401c3.001,2.399,6.301,3.6,9.901,3.6
	s6.899-1.201,9.901-3.6c21.899-19.2,42.599-36.901,62.1-53.401C438.1,330.099,512,267.999,512,177.4C512,93.999,453.1,31,376,31z"/>
<path style="fill:#E61E14;" d="M512,177.4c0,90.599-73.9,152.699-183.999,246.599c-19.501,16.5-40.201,34.2-62.1,53.401
	C262.9,479.799,259.6,481,256,481V111.4C276.4,73.299,315.399,31,376,31C453.1,31,512,93.999,512,177.4z"/>
<g>
</g>
<g>
</g>
<g>
</g>
<g>
</g>
<g>
</g>
<g>
</g>
<g>
</g>
<g>
</g>
<g>
</g>
<g>
</g>
<g>
</g>
<g>
</g>
<g>
</g>
<g>
</g>
<g>
</g>
</svg>
